<svg xmlns="http://www.w3.org/2000/svg" width="30" height="30" viewBox="0 0 30 30">
    <g fill="none" fill-rule="evenodd" stroke="#01579B" stroke-linecap="round" stroke-linejoin="round" stroke-width="2" transform="translate(3 3)">
        <circle cx="9" cy="8.625" r="2.625"/>
        <circle cx="20.25" cy="3.75" r="3"/>
        <path d="M5.779 17.382L6 16.5h-.4a1.491 1.491 0 0 0-1.341.829l-.671 1.342a1.5 1.5 0 1 1-2.68-1.342l.671-1.342A4.479 4.479 0 0 1 5.6 13.5h4.178l.819-1.024 2.181-2.726 2.55-3.187a1.5 1.5 0 1 1 2.344 1.875l-5.318 6.647-.575 2.3M.75 23.25a4.666 4.666 0 0 0 3.75-1.9 4.649 4.649 0 0 0 7.5 0 4.649 4.649 0 0 0 7.5 0 4.666 4.666 0 0 0 3.75 1.9"/>
    </g>
</svg>
